<?xml version="1.0" encoding="UTF-8" standalone="no"?>
<svg
   xmlns:dc="http://purl.org/dc/elements/1.1/"
   xmlns:cc="http://creativecommons.org/ns#"
   xmlns:rdf="http://www.w3.org/1999/02/22-rdf-syntax-ns#"
   xmlns:svg="http://www.w3.org/2000/svg"
   xmlns="http://www.w3.org/2000/svg"
   viewBox="0 0 305.33334 138.66667"
   height="80"
   width="176.1538"
   xml:space="preserve"
   id="svg2"
   version="1.1"><metadata
     id="metadata8"><rdf:RDF><cc:Work
         rdf:about=""><dc:format>image/svg+xml</dc:format><dc:type
           rdf:resource="http://purl.org/dc/dcmitype/StillImage" /></cc:Work></rdf:RDF></metadata><defs
     id="defs6" /><g
     transform="matrix(1.3333333,0,0,-1.3333333,0,138.66667)"
     id="g10"><g
       transform="scale(0.1)"
       id="g12"><path
         id="path14"
         style="fill:#72849d;fill-opacity:1;fill-rule:evenodd;stroke:none"
         d="m 1643.73,862.066 h 15.33 v 155.694 h 83.06 v 14.62 H 1545.36 V 863.949 c 0,0 -4.07,-16.515 4.13,-30.734 8.21,-14.219 10.69,-20.153 24.31,-26.75 13.62,-6.598 18.72,-7.668 34.45,-7.668 15.74,0 92.96,0 92.96,0 0,0 12.97,0.039 21.29,3.203 8.31,3.16 14.19,6.594 18.96,11.535 4.78,4.945 8.32,11.801 8.32,11.801 0,0 6.02,-7.606 10.22,-11.801 4.19,-4.195 11.02,-8.465 16.4,-11.316 5.39,-2.848 18.93,-3.996 25.39,-3.996 6.46,0 100.89,0 100.89,0 0,0 17.55,-0.961 34.87,8.828 17.32,9.789 20.9,24.902 22.6,35.094 1.7,10.187 1.7,11.695 1.7,14.914 0,3.218 0,15.753 0,15.753 l -28.69,30.911 -67.72,72.968 -11.5,-9.671 92.58,-99.754 c 0,0 -0.62,-17.899 -1.88,-23.868 -1.25,-5.968 -6.09,-16.046 -13.02,-20.453 -6.92,-4.41 -13.71,-8.988 -28.15,-9.277 -14.44,-0.285 -105.14,-0.285 -105.14,-0.285 0,0 -15.67,1.832 -22.29,7.195 -6.62,5.367 -11.5,9.399 -14.27,16.852 -2.77,7.453 -3.83,15.761 -3.83,15.761 h -15.85 c 0,0 -3.1,-15.761 -7.52,-22.074 -4.42,-6.312 -14.62,-14.66 -25.53,-16.246 -10.91,-1.59 -58.97,-1.488 -58.97,-1.488 H 1604 c 0,0 -19.67,1.371 -27.16,8.758 -7.5,7.386 -12.49,12.726 -14.59,22.742 -2.11,10.012 -1.57,30.933 -1.57,30.933 v 141.944 h 83.05 z M 1411.37,458.438 c 0,-4.172 -1.13,-8.293 -3.36,-12.368 -2.24,-4.078 -5.38,-7.511 -9.4,-10.359 -4.41,-3.07 -9.56,-5.449 -15.44,-7.195 -5.89,-1.715 -12.99,-2.575 -21.28,-2.575 -8.88,0 -16.89,0.711 -23.99,2.161 -7.1,1.425 -14.32,3.558 -21.67,6.406 v 17.816 h 1.16 c 6.25,-4.515 13.43,-7.976 21.61,-10.429 8.18,-2.43 15.88,-3.657 23.06,-3.657 10.15,0 18.08,1.645 23.74,4.957 5.66,3.313 8.49,7.707 8.49,13.231 0,4.738 -1.34,8.246 -4.02,10.508 -2.69,2.254 -6.77,4 -12.23,5.25 -4.15,0.957 -8.63,1.742 -13.46,2.355 -4.84,0.641 -9.96,1.426 -15.39,2.379 -10.92,2.016 -19.04,5.453 -24.31,10.309 -5.29,4.886 -7.92,11.218 -7.92,19.023 0,8.961 4.36,16.324 13.1,22.043 8.72,5.719 19.81,8.59 33.24,8.59 8.66,0 16.61,-0.711 23.86,-2.16 7.24,-1.422 13.66,-3.215 19.23,-5.325 v -16.812 h -1.16 c -4.69,3.461 -10.86,6.305 -18.53,8.59 -7.64,2.281 -15.47,3.41 -23.48,3.41 -8.77,0 -15.84,-1.57 -21.16,-4.738 -5.35,-3.164 -8.01,-7.239 -8.01,-12.223 0,-4.465 1.33,-7.953 3.99,-10.504 2.63,-2.527 7.3,-4.492 14.01,-5.82 3.53,-0.684 8.54,-1.496 15.07,-2.449 6.51,-0.961 12.03,-1.942 16.58,-2.946 9.17,-2.113 16.07,-5.304 20.71,-9.574 4.64,-4.246 6.96,-10.211 6.96,-17.894 z m -166.5,64.21 c 5.04,-4.789 8.88,-10.652 11.57,-17.625 2.69,-6.945 4.02,-14.824 4.02,-23.636 0,-8.836 -1.36,-16.739 -4.11,-23.711 -2.74,-6.969 -6.56,-12.785 -11.48,-17.422 -5.09,-4.863 -11.09,-8.496 -18.03,-10.949 -6.92,-2.43 -14.85,-3.66 -23.73,-3.66 -8.68,0 -16.58,1.253 -23.68,3.73 -7.11,2.508 -13.13,6.113 -18.11,10.879 -4.98,4.734 -8.8,10.551 -11.48,17.473 -2.69,6.894 -4.02,14.777 -4.02,23.66 0,8.715 1.33,16.547 3.99,23.465 2.63,6.921 6.51,12.859 11.6,17.796 4.86,4.711 10.89,8.297 18.11,10.801 7.21,2.477 15.07,3.727 23.59,3.727 8.83,0 16.78,-1.25 23.82,-3.781 7.04,-2.5 13.02,-6.086 17.94,-10.747 z m -1.5,-41.261 c 0,13.89 -3.59,24.617 -10.78,32.179 -7.19,7.536 -16.98,11.317 -29.42,11.317 -12.54,0 -22.38,-3.781 -29.54,-11.317 -7.16,-7.562 -10.72,-18.289 -10.72,-32.179 0,-14.063 3.65,-24.817 10.95,-32.25 7.26,-7.465 17.05,-11.196 29.31,-11.196 12.28,0 22.04,3.731 29.3,11.196 7.28,7.433 10.9,18.187 10.9,32.25 z m -140.45,-53.508 h -78.09 v 107.066 h 16.41 v -94.402 h 61.68 z m -129.217,0 h -21.305 l -41.332,42.559 h -23.058 v -42.559 h -16.41 v 107.066 h 34.57 c 7.445,0 13.672,-0.418 18.648,-1.254 4.954,-0.832 9.45,-2.332 13.411,-4.492 4.468,-2.453 7.976,-5.519 10.496,-9.25 2.519,-3.707 3.761,-8.422 3.761,-14.14 0,-7.707 -2.234,-14.161 -6.703,-19.368 -4.469,-5.203 -10.64,-9.129 -18.476,-11.753 z m -38.363,76.926 c 0,3.066 -0.621,5.789 -1.867,8.172 -1.246,2.378 -3.313,4.367 -6.168,6.015 -2.375,1.371 -5.203,2.356 -8.457,2.895 -3.254,0.566 -7.102,0.836 -11.516,0.836 h -19.324 v -40.426 h 16.578 c 5.207,0 9.734,0.391 13.609,1.18 3.848,0.808 7.129,2.277 9.848,4.437 2.488,2.016 4.328,4.324 5.516,6.926 1.187,2.625 1.781,5.937 1.781,9.965 z M 817.668,427.879 h -17.457 l -12.078,29.848 H 734.66 l -12.082,-29.848 h -16.664 l 44.93,107.066 h 21.894 z m -34.688,42.074 -21.585,52.52 -21.7,-52.52 z M 661.941,435.637 c -3.027,-1.129 -5.8,-2.211 -8.234,-3.215 -2.461,-1.008 -5.687,-2.063 -9.676,-3.168 -3.367,-0.906 -7.015,-1.692 -10.972,-2.332 -3.965,-0.66 -8.293,-0.981 -13.047,-0.981 -8.969,0 -17.086,1.079 -24.414,3.266 -7.328,2.184 -13.692,5.594 -19.098,10.258 -5.316,4.539 -9.449,10.336 -12.449,17.351 -2.969,7.024 -4.469,15.196 -4.469,24.5 0,8.809 1.445,16.688 4.301,23.633 2.887,6.973 7.012,12.84 12.449,17.625 5.234,4.637 11.57,8.196 19.012,10.653 7.437,2.429 15.672,3.656 24.754,3.656 6.621,0 13.238,-0.688 19.832,-2.086 6.621,-1.402 13.949,-3.828 22.011,-7.34 V 510.57 h -1.246 c -6.789,4.934 -13.523,8.543 -20.226,10.778 -6.676,2.257 -13.836,3.386 -21.446,3.386 -6.253,0 -11.882,-0.886 -16.859,-2.625 -5.012,-1.746 -9.48,-4.472 -13.383,-8.152 -3.824,-3.605 -6.793,-8.148 -8.914,-13.648 -2.121,-5.469 -3.195,-11.805 -3.195,-18.993 0,-7.539 1.156,-14.019 3.504,-19.418 2.351,-5.421 5.379,-9.843 9.082,-13.23 3.879,-3.559 8.402,-6.184 13.554,-7.875 5.176,-1.695 10.637,-2.555 16.379,-2.555 7.895,0 15.305,1.18 22.211,3.535 6.903,2.332 13.356,5.868 19.379,10.551 h 1.16 z m -244.332,87.011 c 5.039,-4.789 8.883,-10.652 11.571,-17.625 2.687,-6.945 4.019,-14.824 4.019,-23.636 0,-8.836 -1.359,-16.739 -4.101,-23.711 -2.746,-6.969 -6.563,-12.785 -11.489,-17.422 -5.089,-4.863 -11.089,-8.496 -18.023,-10.949 -6.93,-2.43 -14.848,-3.66 -23.734,-3.66 -8.688,0 -16.579,1.253 -23.68,3.73 -7.102,2.508 -13.129,6.113 -18.11,10.879 -4.98,4.734 -8.796,10.551 -11.484,17.473 -2.687,6.894 -4.016,14.777 -4.016,23.66 0,8.715 1.329,16.547 3.989,23.465 2.629,6.921 6.508,12.859 11.597,17.796 4.868,4.711 10.895,8.297 18.106,10.801 7.219,2.477 15.082,3.727 23.598,3.727 8.824,0 16.777,-1.25 23.82,-3.781 7.043,-2.5 13.016,-6.086 17.937,-10.747 z m -1.5,-41.261 c 0,13.89 -3.589,24.617 -10.777,32.179 -7.187,7.536 -16.977,11.317 -29.422,11.317 -12.535,0 -22.379,-3.781 -29.539,-11.317 -7.16,-7.562 -10.723,-18.289 -10.723,-32.179 0,-14.063 3.653,-24.817 10.95,-32.25 7.273,-7.465 17.058,-11.196 29.312,-11.196 12.278,0 22.035,3.731 29.305,11.196 7.273,7.433 10.894,18.187 10.894,32.25 z M 271.672,427.879 h -17.453 l -12.082,29.848 h -53.469 l -12.082,-29.848 h -16.664 l 44.93,107.066 h 21.894 z m -34.688,42.074 -21.586,52.52 -21.699,-52.52 z m 13.496,101.195 c -0.593,-7.293 -2.742,-12.789 -6.39,-16.472 -3.652,-3.703 -8.52,-5.543 -14.656,-5.543 -2.996,0 -5.746,0.465 -8.289,1.394 -2.547,0.934 -4.95,2.309 -7.215,4.078 -2.602,2.059 -4.813,3.606 -6.59,4.637 -1.813,1.031 -3.766,1.547 -5.945,1.547 -2.856,0 -5.008,-1.078 -6.45,-3.238 -1.441,-2.16 -2.261,-5.059 -2.488,-8.715 H 181.59 c 0.457,7.242 2.633,12.715 6.539,16.394 3.93,3.708 8.742,5.551 14.426,5.551 2.773,0 5.433,-0.469 8.007,-1.402 2.575,-0.934 5.008,-2.258 7.329,-4 2.605,-1.965 4.921,-3.434 6.933,-4.418 2.008,-0.981 3.93,-1.473 5.77,-1.473 2.801,0 5.008,1.106 6.59,3.317 1.558,2.207 2.437,4.98 2.605,8.343 z M 112.777,458.438 c 0,-4.172 -1.129,-8.293 -3.363,-12.368 -2.238,-4.078 -5.379,-7.511 -9.394,-10.359 -4.4145,-3.07 -9.5669,-5.449 -15.4458,-7.195 -5.8906,-1.715 -12.9883,-2.575 -21.2773,-2.575 -8.8828,0 -16.8907,0.711 -23.9922,2.161 -7.1016,1.425 -14.3125,3.558 -21.6719,6.406 v 17.816 h 1.1602 c 6.2539,-4.515 13.4375,-7.976 21.6172,-10.429 8.1757,-2.43 15.871,-3.657 23.0546,-3.657 10.1563,0 18.0821,1.645 23.7383,4.957 5.6602,3.313 8.4883,7.707 8.4883,13.231 0,4.738 -1.332,8.246 -4.0195,10.508 -2.6836,2.254 -6.7617,4 -12.2227,5.25 -4.1562,0.957 -8.6289,1.742 -13.4648,2.355 -4.8399,0.641 -9.961,1.426 -15.3906,2.379 -10.9219,2.016 -19.0391,5.453 -24.3047,10.309 -5.2891,4.886 -7.9219,11.218 -7.9219,19.023 0,8.961 4.3594,16.324 13.1016,22.043 8.7148,5.719 19.8046,8.59 33.2421,8.59 8.6563,0 16.6094,-0.711 23.8516,-2.16 7.2422,-1.422 13.6645,-3.215 19.2385,-5.325 v -16.812 h -1.164 c -4.692,3.461 -10.8597,6.305 -18.5276,8.59 -7.6406,2.281 -15.4766,3.41 -23.4844,3.41 -8.7695,0 -15.8438,-1.57 -21.1602,-4.738 -5.3476,-3.164 -8.0078,-7.239 -8.0078,-12.223 0,-4.465 1.3282,-7.953 3.9922,-10.504 2.625,-2.527 7.2969,-4.492 14.0039,-5.82 3.5313,-0.684 8.543,-1.496 15.0742,-2.449 6.5118,-0.961 12.0274,-1.942 16.586,-2.946 9.164,-2.113 16.0667,-5.304 20.7067,-9.574 4.637,-4.246 6.957,-10.211 6.957,-17.894 z m 1414.493,487.265 -58.61,-55.957 c -39.92,42.07 -84.75,63.106 -134.58,63.106 -42.17,0 -77.6,-14.395 -106.4,-43.09 -28.8,-28.696 -43.19,-64.125 -43.19,-106.196 0,-29.308 6.33,-55.343 19.09,-78.011 12.76,-22.77 30.84,-40.645 54.12,-53.61 23.38,-12.968 49.32,-19.402 77.81,-19.402 24.3,0 46.56,4.492 66.78,13.582 19.6,8.852 45.5,24.695 68.89,47.695 -13.34,-19.843 -22.98,-57.836 -24.09,-80.402 -1.11,-22.566 0.07,-25.945 1.95,-37.691 -3.81,-1.915 -11.96,-3.676 -15.71,-5.266 -28.9,-12.254 -61.88,-18.379 -99.04,-18.379 -68.32,0 -124.38,21.648 -167.98,65.043 -43.5,43.398 -65.35,98.945 -65.35,166.746 0,43.91 9.9,82.914 29.82,117.02 19.81,34.105 48.19,61.472 85.26,82.199 36.96,20.73 76.79,31.14 119.47,31.14 36.35,0 71.27,-7.65 104.87,-23.07 33.59,-15.32 62.59,-37.168 86.89,-65.457 z M 7.25,1023.21 H 90.3672 V 583.109 H 7.25 Z m 551.535,-77.507 -58.613,-55.957 c -39.922,42.07 -84.75,63.106 -134.582,63.106 -42.172,0 -77.602,-14.395 -106.399,-43.09 -28.796,-28.696 -43.195,-64.125 -43.195,-106.196 0,-29.308 6.332,-55.343 19.098,-78.011 12.761,-22.77 30.836,-40.645 54.117,-53.61 23.383,-12.968 49.32,-19.402 77.809,-19.402 24.3,0 46.562,4.492 66.781,13.582 20.113,9.086 42.273,25.527 66.371,49.523 l 56.879,-59.226 c -32.574,-31.754 -63.313,-53.707 -92.211,-65.961 -28.895,-12.254 -61.875,-18.379 -99.043,-18.379 -68.313,0 -124.375,21.648 -167.977,65.043 -43.496,43.398 -65.351,98.945 -65.351,166.746 0,43.91 9.906,82.914 29.82,117.02 19.809,34.105 48.191,61.472 85.258,82.199 36.969,20.73 76.793,31.14 119.473,31.14 36.351,0 71.273,-7.65 104.867,-23.07 33.597,-15.32 62.593,-37.168 86.898,-65.457 z M 2058.85,978.84 h -15.32 V 812.973 h -83.06 v -14.614 h 101.51 l -1.73,77.172 96.98,0.762 v 90.488 c 0,0 4.08,16.52 -4.13,30.739 -8.21,14.22 -10.69,20.15 -24.31,26.75 -13.62,6.6 -18.72,7.66 -34.45,7.66 -15.73,0 -92.96,0 -92.96,0 0,0 -12.97,-0.03 -21.29,-3.19 -8.3,-3.17 -14.19,-6.6 -18.97,-11.54 -4.77,-4.95 -8.31,-11.81 -8.31,-11.81 0,0 -6.02,7.61 -10.22,11.81 -4.19,4.19 -11.02,8.47 -16.4,11.31 -5.39,2.85 -18.92,4 -25.39,4 -6.46,0 -100.89,0 -100.89,0 0,0 -17.55,0.96 -34.87,-8.83 -17.33,-9.78 -20.9,-24.899 -22.59,-35.09 -1.71,-10.192 -1.71,-11.699 -1.71,-14.918 0,-3.215 0,-15.754 0,-15.754 l 28.69,-30.906 67.73,-72.973 11.49,9.68 -92.58,99.75 c 0,0 0.63,17.894 1.88,23.863 1.25,5.973 6.09,16.048 13.01,20.458 6.93,4.41 13.72,8.99 28.16,9.27 14.44,0.29 105.15,0.29 105.15,0.29 0,0 15.66,-1.83 22.28,-7.19 6.62,-5.37 11.5,-9.4 14.27,-16.855 2.78,-7.453 3.83,-15.762 3.83,-15.762 h 15.85 c 0,0 3.1,15.762 7.52,22.074 4.43,6.313 14.61,14.653 25.53,16.243 10.91,1.59 58.97,1.49 58.97,1.49 h 46.07 c 0,0 19.67,-1.37 27.16,-8.76 7.5,-7.38 12.5,-12.723 14.6,-22.738 2.1,-10.016 1.56,-30.934 1.56,-30.934 l 1.35,-63.66 h -83.06 z m -1414.565,44.37 h 81.996 L 827.984,716.258 931.215,1023.21 h 80.775 l 74.13,-440.101 h -80.77 L 958.07,861.055 864.434,583.109 h -73.825 l -92.41,277.946 -48.195,-277.946 h -81.692 l 75.973,440.101" /><g
         transform="matrix(-0.583575,-0.423535,-0.415332,0.577558,0,0)"
         id="g16"><path
           id="path18"
           style="fill:none;stroke:#72849d;stroke-width:24.05450058;stroke-linecap:butt;stroke-linejoin:miter;stroke-miterlimit:22.92560005;stroke-dasharray:none;stroke-opacity:1"
           d="m -2548.57,-862.049 c -202.93,15.049 -378.76,28.42 -442.6,-55.054 -63.84,-83.467 -42.81,-229.757 161.71,-258.737" /></g><g
         transform="matrix(-0.881906,-0.125235,-0.112733,0.880126,0,0)"
         id="g20"><path
           id="path22"
           style="fill:none;stroke:#72849d;stroke-width:19.37929916;stroke-linecap:butt;stroke-linejoin:miter;stroke-miterlimit:22.92560005;stroke-dasharray:none;stroke-opacity:1"
           d="m -2195.68,294.535 c -62.18,39.259 -131.69,80.302 -199.03,106.093 -58.23,21.429 -81.83,-21.545 -56.09,-53.256 l 45.34,-40.239" /></g><g
         transform="matrix(-0.881906,-0.125235,-0.112733,0.880126,0,0)"
         id="g24"><path
           id="path26"
           style="fill:none;stroke:#72849d;stroke-width:19.37929916;stroke-linecap:butt;stroke-linejoin:miter;stroke-miterlimit:22.92560005;stroke-dasharray:none;stroke-opacity:1"
           d="m -2342.22,379.798 c -110.8,-116.223 -178.22,-239.006 -224.25,-353.0902 -43.05,-124.979 52.52,-329.2728 291.07,-245.8068" /></g><g
         transform="matrix(-0.881906,-0.125235,-0.112733,0.880126,0,0)"
         id="g28"><path
           id="path30"
           style="fill:none;stroke:#72849d;stroke-width:19.37929916;stroke-linecap:butt;stroke-linejoin:miter;stroke-miterlimit:22.92560005;stroke-dasharray:none;stroke-opacity:1"
           d="m -2271.32,338.948 c -97.33,-111.474 -168.32,-239.0124 -213.15,-351.5065 -20.25,-66.5521 40.52,-155.5345 145.92,-130.6305" /></g><g
         transform="matrix(-0.881906,-0.125235,-0.112733,0.880126,0,0)"
         id="g32"><path
           id="path34"
           style="fill:none;stroke:#72849d;stroke-width:19.37929916;stroke-linecap:butt;stroke-linejoin:miter;stroke-miterlimit:22.92560005;stroke-dasharray:none;stroke-opacity:1"
           d="m -2327.91,110.176 c -20.42,-25.5457 -28.16,-60.6048 -38.88,-94.6715 -33.26,-323.0865 377.97,-369.2705 492.58,-180.3485" /></g><g
         transform="matrix(-0.688841,-0.31828,-0.30856,0.684319,0,0)"
         id="g36"><path
           id="path38"
           style="fill:none;stroke:#72849d;stroke-width:22.82719994;stroke-linecap:butt;stroke-linejoin:miter;stroke-miterlimit:22.92560005;stroke-dasharray:none;stroke-opacity:1"
           d="m -2720.55,-521.105 c 82.67,-52.54 165.85,-86.64 239.13,-158.103 51.35,-63.465 91.92,-142.861 53.4,-251.761" /></g><g
         transform="matrix(-0.688841,-0.31828,-0.30856,0.684319,0,0)"
         id="g40"><path
           id="path42"
           style="fill:none;stroke:#72849d;stroke-width:22.82719994;stroke-linecap:butt;stroke-linejoin:miter;stroke-miterlimit:22.92560005;stroke-dasharray:none;stroke-opacity:1"
           d="m -2758.65,-615.259 c 64.85,-29.886 130.78,-73.827 187.15,-116.766 37.54,-29.85 67.36,-97.872 40.99,-142.892" /></g><g
         transform="matrix(-0.327001,0.66588,0.67066,0.336459,0,0)"
         id="g44"><path
           id="path46"
           style="fill:none;stroke:#72849d;stroke-width:23.11190033;stroke-linecap:butt;stroke-linejoin:miter;stroke-miterlimit:22.92560005;stroke-dasharray:none;stroke-opacity:1"
           d="m -821.016,2583.37 c -262.764,1.88 -255.354,-338.49 -72.91,-410.87" /></g><g
         transform="matrix(-0.583575,-0.423535,-0.415332,0.577558,0,0)"
         id="g48"><path
           id="path50"
           style="fill:none;stroke:#72849d;stroke-width:24.05450058;stroke-linecap:butt;stroke-linejoin:miter;stroke-miterlimit:22.92560005;stroke-dasharray:none;stroke-opacity:1"
           d="m -2285.34,-1026.94 c 19.34,-238.08 240.69,-351.75 448.95,-194.71 124.51,97.77 110.86,316.316 -101.13,426.055 -78.52,39.448 -152.46,52.067 -230.42,78.989" /></g><g
         transform="matrix(-0.688841,-0.31828,-0.30856,0.684319,0,0)"
         id="g52"><path
           id="path54"
           style="fill:none;stroke:#72849d;stroke-width:22.82719994;stroke-linecap:butt;stroke-linejoin:miter;stroke-miterlimit:22.92560005;stroke-dasharray:none;stroke-opacity:1"
           d="m -2477.94,-451.938 c 85.28,-38.59 169.16,-74.182 245.36,-120.629 51,-23.597 88.51,-80.759 86.15,-138.273" /></g><g
         transform="matrix(-0.74929,-0.257837,-0.247246,0.745627,0,0)"
         id="g56"><path
           id="path58"
           style="fill:none;stroke:#72849d;stroke-width:21.81200027;stroke-linecap:butt;stroke-linejoin:miter;stroke-miterlimit:22.92560005;stroke-dasharray:none;stroke-opacity:1"
           d="m -2308.69,-23.445 c -72.72,-103.641 -124.33,-220.027 -174.56,-325.912" /></g><g
         transform="matrix(-0.688841,-0.31828,-0.30856,0.684319,0,0)"
         id="g60"><path
           id="path62"
           style="fill:none;stroke:#72849d;stroke-width:22.82719994;stroke-linecap:butt;stroke-linejoin:miter;stroke-miterlimit:22.92560005;stroke-dasharray:none;stroke-opacity:1"
           d="m -2447.22,-357.58 c 99.13,-44.884 196.37,-77.904 285.41,-140.216 74.91,-39.772 120.45,-125.957 128.59,-229.536" /></g><g
         transform="matrix(-0.881906,-0.125235,-0.112733,0.880126,0,0)"
         id="g64"><path
           id="path66"
           style="fill:none;stroke:#72849d;stroke-width:19.37929916;stroke-linecap:butt;stroke-linejoin:miter;stroke-miterlimit:22.92560005;stroke-dasharray:none;stroke-opacity:1"
           d="m -1946.98,68.1653 c -21.43,-58.23012 5.85,-160.4674 141.95,-152.4193 57.86,11.0639 128.42,91.84676 50.63,201.042 -31.87,44.988 -65.53,82.65 -107.9,121.896" /></g><g
         transform="matrix(-0.688841,-0.31828,-0.30856,0.684319,0,0)"
         id="g68"><path
           id="path70"
           style="fill:none;stroke:#72849d;stroke-width:22.82719994;stroke-linecap:butt;stroke-linejoin:miter;stroke-miterlimit:22.92560005;stroke-dasharray:none;stroke-opacity:1"
           d="m -2202.55,-476.716 c 0.24,112.937 96.51,254.161 85.38,356.35 -42.89,205.7005 -252.98,164.4037 -327.19,-32.073" /></g><g
         transform="matrix(-0.688841,-0.31828,-0.30856,0.684319,0,0)"
         id="g72"><path
           id="path74"
           style="fill:none;stroke:#72849d;stroke-width:22.82719994;stroke-linecap:butt;stroke-linejoin:miter;stroke-miterlimit:22.92560005;stroke-dasharray:none;stroke-opacity:1"
           d="m -2303.66,-423.653 c 22.65,96.061 59.05,182.139 78.01,278.308 -10.27,80.7508 -74.18,65.5851 -129.64,-42.1" /></g><g
         transform="matrix(-0.583575,-0.423535,-0.415332,0.577558,0,0)"
         id="g76"><path
           id="path78"
           style="fill:none;stroke:#72849d;stroke-width:24.05450058;stroke-linecap:butt;stroke-linejoin:miter;stroke-miterlimit:22.92560005;stroke-dasharray:none;stroke-opacity:1"
           d="m -2280.86,-803.725 c -93.93,28.141 -198.16,37.957 -296.59,36.929 -58.51,-8.41 -72.16,-48.61 -84.13,-94.037" /></g><g
         transform="matrix(-0.583575,-0.423535,-0.415332,0.577558,0,0)"
         id="g80"><path
           id="path82"
           style="fill:none;stroke:#72849d;stroke-width:24.05450058;stroke-linecap:butt;stroke-linejoin:miter;stroke-miterlimit:22.92560005;stroke-dasharray:none;stroke-opacity:1"
           d="m -2264.4,-696.789 c -113.85,20.004 -236.3,48.797 -355.02,37.207 -109.55,-32.905 -136.56,-119.549 -146.1,-197.7" /></g><g
         transform="matrix(-0.488979,-0.518121,-0.51128,0.481619,0,0)"
         id="g84"><path
           id="path86"
           style="fill:none;stroke:#72849d;stroke-width:47.50970078;stroke-linecap:butt;stroke-linejoin:miter;stroke-miterlimit:22.92560005;stroke-dasharray:none;stroke-opacity:1"
           d="m -2377.04,-1393.71 c -137.4,-23.71 -232.86,-35.91 -269.73,-49.72 -209.83,-52.5 -111.99,-241.99 55.09,-212.23" /></g><g
         transform="matrix(-0.74929,-0.257837,-0.247246,0.745627,0,0)"
         id="g88"><path
           id="path90"
           style="fill:none;stroke:#72849d;stroke-width:21.81200027;stroke-linecap:butt;stroke-linejoin:miter;stroke-miterlimit:22.92560005;stroke-dasharray:none;stroke-opacity:1"
           d="M -2396.92,9.51575 C -2459.19,-90.5181 -2517.05,-184.007 -2560.34,-285.826" /></g><g
         transform="matrix(-0.488979,-0.518121,-0.51128,0.481619,0,0)"
         id="g92"><path
           id="path94"
           style="fill:none;stroke:#72849d;stroke-width:47.50970078;stroke-linecap:butt;stroke-linejoin:miter;stroke-miterlimit:22.92560005;stroke-dasharray:none;stroke-opacity:1"
           d="m -2534.92,-1470.48 c -10.96,-177.28 14.1,-351.99 51.25,-482.67 28.23,-124.78 212.9,-270 369.38,-52.54" /></g><g
         transform="matrix(-0.342942,0.649941,0.654944,0.352173,0,0)"
         id="g96"><path
           id="path98"
           style="fill:none;stroke:#72849d;stroke-width:45.47069931;stroke-linecap:butt;stroke-linejoin:miter;stroke-miterlimit:22.92560005;stroke-dasharray:none;stroke-opacity:1"
           d="m -743.693,2754.99 c -58.305,-83.33 -130.048,-354.04 -339.597,-285.56" /></g><g
         transform="matrix(-0.488979,-0.518121,-0.51128,0.481619,0,0)"
         id="g100"><path
           id="path102"
           style="fill:none;stroke:#72849d;stroke-width:47.50970078;stroke-linecap:butt;stroke-linejoin:miter;stroke-miterlimit:22.92560005;stroke-dasharray:none;stroke-opacity:1"
           d="m -2309.49,-1742.51 c 74.91,-346.04 536.97,-241.98 557.77,75.17" /></g><g
         transform="matrix(-0.692327,-0.314794,-0.305024,0.687855,0,0)"
         id="g104"><path
           id="path106"
           style="fill:none;stroke:#72849d;stroke-width:44.42779922;stroke-linecap:butt;stroke-linejoin:miter;stroke-miterlimit:22.92560005;stroke-dasharray:none;stroke-opacity:1"
           d="m -2440.16,-238.725 c -59.79,-110.645 -100.64,-227.095 -145.03,-339.746" /></g><g
         transform="matrix(-0.488979,-0.518121,-0.51128,0.481619,0,0)"
         id="g108"><path
           id="path110"
           style="fill:none;stroke:#72849d;stroke-width:47.50970078;stroke-linecap:butt;stroke-linejoin:miter;stroke-miterlimit:22.92560005;stroke-dasharray:none;stroke-opacity:1"
           d="m -2272.54,-1389.9 c 115.82,0.49 224.36,-4.27 325.89,-21.73 81.54,-15.71 140.76,-68.36 175.92,-144.3" /></g><g
         transform="matrix(-0.692327,-0.314794,-0.305024,0.687855,0,0)"
         id="g112"><path
           id="path114"
           style="fill:none;stroke:#72849d;stroke-width:44.42779922;stroke-linecap:butt;stroke-linejoin:miter;stroke-miterlimit:22.92560005;stroke-dasharray:none;stroke-opacity:1"
           d="m -2269.91,-535.562 c -12.43,-146.9 102.79,-287.884 305.42,-200.579 79.72,47.342 122.19,168.162 33.08,275.835 -48.1,57.642 -138.98,113.813 -236.23,156.205" /></g><g
         transform="matrix(-0.692327,-0.314794,-0.305024,0.687855,0,0)"
         id="g116"><path
           id="path118"
           style="fill:none;stroke:#72849d;stroke-width:44.42779922;stroke-linecap:butt;stroke-linejoin:miter;stroke-miterlimit:22.92560005;stroke-dasharray:none;stroke-opacity:1"
           d="m -2251.64,-433.062 c 16.64,98.136 84.56,230.598 86.29,301.994 -1.31,133.37434 -151.5,156.9651 -228.17,-15.71" /></g><g
         transform="matrix(-0.692327,-0.314794,-0.305024,0.687855,0,0)"
         id="g120"><path
           id="path122"
           style="fill:none;stroke:#72849d;stroke-width:44.42779922;stroke-linecap:butt;stroke-linejoin:miter;stroke-miterlimit:22.92560005;stroke-dasharray:none;stroke-opacity:1"
           d="m -2257.4,-258.281 c -88.39,42.823 -165.71,65.379 -261.28,92.246 -107.24,8.851 -129.97,-52.241 -159.93,-109.403" /></g><path
         id="path124"
         style="fill:none;stroke:#72849d;stroke-width:8.50389957;stroke-linecap:butt;stroke-linejoin:miter;stroke-miterlimit:22.92560005;stroke-dasharray:none;stroke-opacity:1"
         d="m 1717.58,443.297 c -45.24,58.527 -96.88,105.848 -139.61,165.621 -17.85,58.531 30.86,68.492 102.29,12.453 -71.43,56.039 -120.14,46.078 -102.29,-12.453 42.73,-59.773 94.37,-107.094 139.61,-165.621 z" /><path
         id="path126"
         style="fill:none;stroke:#72849d;stroke-width:8.50389957;stroke-linecap:butt;stroke-linejoin:miter;stroke-miterlimit:22.92560005;stroke-dasharray:none;stroke-opacity:1"
         d="M 1821.86,508.051 C 1764.97,448.277 1714.33,389.75 1673.61,328.73 c -31.84,-49.812 -33.88,-105.851 -12.24,-160.64 -21.64,54.789 -19.6,110.828 12.24,160.64 40.72,61.02 91.36,119.547 148.25,179.321 z" /></g></g></svg>